<svg width="72" height="23" viewBox="0 0 72 23" fill="none" xmlns="http://www.w3.org/2000/svg">
<path d="M59.95 7.772L62.928 11.054L65.795 7.772H71.917L65.934 14.5L71.999 21.283H65.63L62.68 17.975L59.757 21.283H53.607L59.619 14.528L53.607 7.772H59.95Z" fill="#FF5900"/>
<path d="M53.607 7.772V12.337H46.798V16.526H53.607V21.283H41.794V0H53.607V4.744H46.798V7.772H53.607Z" fill="#FF5900"/>
<path d="M36.811 0V8.71H36.756C35.652 7.442 34.274 7.001 32.675 7.001C29.399 7.001 26.931 9.229 26.065 12.173C25.076 8.929 22.528 6.94 18.75 6.94C15.682 6.94 13.259 8.317 11.995 10.561V7.772H5.653V4.744H12.574V0H0V21.283H5.653V12.337H11.288C11.12 12.994 11.03 13.698 11.03 14.441C11.03 18.88 14.422 21.996 18.75 21.996C22.39 21.996 24.789 20.287 26.057 17.172H21.212C20.557 18.109 20.06 18.386 18.75 18.386C17.231 18.386 15.921 17.061 15.921 15.49H25.786C26.214 19.016 28.961 22.057 32.73 22.057C34.356 22.057 35.845 21.257 36.755 19.907H36.81V21.285H41.793V0H36.811ZM16.079 12.4C16.393 11.048 17.442 10.165 18.751 10.165C20.192 10.165 21.187 11.021 21.449 12.4C21.559 12.4 16.079 12.4 16.079 12.4ZM33.786 18.043C31.949 18.043 30.807 16.331 30.807 14.544C30.807 12.634 31.8 10.797 33.786 10.797C35.845 10.797 36.665 12.634 36.665 14.544C36.665 16.355 35.796 18.043 33.786 18.043Z" fill="#2A007C"/>
</svg>
