<?xml version="1.0" encoding="UTF-8"?>
<svg viewBox="0 0 250 170" xmlns="http://www.w3.org/2000/svg" xmlns:xlink="http://www.w3.org/1999/xlink">
 <defs>
  <filter id="b">
   <feGaussianBlur stdDeviation=".96742"/>
  </filter>
  <linearGradient id="a">
   <stop stop-color="#dcc06d" offset="0"/>
   <stop stop-color="#af7e32" offset="1"/>
  </linearGradient>
  <linearGradient id="g" x1="382.65" x2="93.575" y1="408.69" y2="351.63" gradientUnits="userSpaceOnUse">
   <stop stop-color="#dcbb6c" offset="0"/>
   <stop stop-color="#af7e32" offset="1"/>
  </linearGradient>
  <linearGradient id="f" x1="703.98" x2="391.71" y1="327.35" y2="304.03" gradientUnits="userSpaceOnUse">
   <stop stop-color="#5b230a" offset="0"/>
   <stop stop-color="#8c5e22" offset="1"/>
  </linearGradient>
  <linearGradient id="e" x1="241.54" x2="431.2" y1="170.98" y2="69.749" gradientUnits="userSpaceOnUse" xlink:href="#a"/>
  <linearGradient id="d" x1="232.03" x2="540.41" y1="189.24" y2="107.64" gradientUnits="userSpaceOnUse" xlink:href="#a"/>
  <linearGradient id="c" x1="522.68" x2="517.57" y1="99.216" y2="160.57" gradientUnits="userSpaceOnUse" xlink:href="#a"/>
 </defs>
 <g transform="matrix(.33678 0 0 .33759 -5.6912 -16.583)">
  <path d="m68.407 144.23 319.78 135.16-10.714 256.32-302.47-163.19-6.5934-228.3z" fill="url(#g)" fill-rule="evenodd" stroke="#000" stroke-linejoin="round"/>
  <path d="m388.19 278.57 323.9-125.27-11.538 216.76-322.48 165.7 10.113-257.19z" fill="url(#f)" stroke="#000" stroke-linejoin="round"/>
  <path d="m194.31 197.02-11.341 234.38 74.094 40.071 13.609-242.69-76.362-31.754z" fill-opacity=".08642" fill-rule="evenodd" filter="url(#b)" opacity=".64737" stroke="#fff"/>
  <path d="m68.41 143.83 158.6 66.876 310.45-111.05-135.29-40.8-333.76 84.975z" fill="url(#e)" fill-rule="evenodd" stroke="#000"/>
  <path d="m232.53 213.47 155.84 65.649 323.95-125.78-174.86-53.991-304.93 114.12z" fill="url(#d)" fill-rule="evenodd" stroke="#000"/>
  <path d="m194.32 197.35 317.53-105.42 63.509 18.901-304.79 118.38-76.25-31.863z" fill="url(#c)" fill-rule="evenodd" filter="url(#b)" opacity=".64737" stroke="#fff"/>
  <path d="m537.56 100.25-311.82 109.95 8.0997 3.3496 303.72-113.3z" fill-opacity=".6358" fill-rule="evenodd"/>
  <path d="m181.99 267.52 187.85 86.767-2.1692 116.27-188.72-93.709 3.0369-109.33z" fill="#ffe9ff" fill-rule="evenodd" opacity=".14211"/>
  <path d="m186.76 276.63 176.14 82.429-0.43383 102.82-179.17-87.635 3.4707-97.613z" fill="#fff" fill-rule="evenodd" opacity=".36316" stroke="#002278" stroke-linejoin="round" stroke-width="1.9"/>
 </g>
</svg>
