<svg viewBox="0 0 250 170" xmlns="http://www.w3.org/2000/svg" xmlns:xlink="http://www.w3.org/1999/xlink"><filter id="a"><feGaussianBlur stdDeviation=".96742"/></filter><linearGradient id="b"><stop offset="0" stop-color="#dcc06d"/><stop offset="1" stop-color="#af7e32"/></linearGradient><linearGradient id="c" gradientUnits="userSpaceOnUse" x1="382.65" x2="93.575" y1="408.69" y2="351.63"><stop offset="0" stop-color="#dcbb6c"/><stop offset="1" stop-color="#af7e32"/></linearGradient><linearGradient id="d" gradientUnits="userSpaceOnUse" x1="703.98" x2="391.71" y1="327.35" y2="304.03"><stop offset="0" stop-color="#5b230a"/><stop offset="1" stop-color="#8c5e22"/></linearGradient><linearGradient id="e" gradientUnits="userSpaceOnUse" x1="241.54" x2="431.2" xlink:href="#b" y1="170.98" y2="69.749"/><linearGradient id="f" gradientUnits="userSpaceOnUse" x1="232.03" x2="540.41" xlink:href="#b" y1="189.24" y2="107.64"/><linearGradient id="g" gradientUnits="userSpaceOnUse" x1="522.68" x2="517.57" xlink:href="#b" y1="99.216" y2="160.57"/><g transform="matrix(.33678 0 0 .33759 -5.6912 -16.583)"><path d="m68.407 144.23 319.78 135.16-10.714 256.32-302.47-163.19-6.5934-228.3z" fill="url(#c)" fill-rule="evenodd" stroke="#000" stroke-linejoin="round"/><path d="m388.19 278.57 323.9-125.27-11.538 216.76-322.48 165.7 10.113-257.19z" fill="url(#d)" stroke="#000" stroke-linejoin="round"/><g fill-rule="evenodd"><path d="m194.31 197.02-11.341 234.38 74.094 40.071 13.609-242.69-76.362-31.754z" fill-opacity=".08642" filter="url(#a)" opacity=".64737" stroke="#fff"/><path d="m68.41 143.83 158.6 66.876 310.45-111.05-135.29-40.8-333.76 84.975z" fill="url(#e)" stroke="#000"/><path d="m232.53 213.47 155.84 65.649 323.95-125.78-174.86-53.991-304.93 114.12z" fill="url(#f)" stroke="#000"/><path d="m194.32 197.35 317.53-105.42 63.509 18.901-304.79 118.38-76.25-31.863z" fill="url(#g)" filter="url(#a)" opacity=".64737" stroke="#fff"/><path d="m537.56 100.25-311.82 109.95 8.0997 3.3496 303.72-113.3z" fill-opacity=".6358"/><path d="m181.99 267.52 187.85 86.767-2.1692 116.27-188.72-93.709 3.0369-109.33z" fill="#ffe9ff" opacity=".14211"/><path d="m186.76 276.63 176.14 82.429-.43383 102.82-179.17-87.635 3.4707-97.613z" fill="#fff" opacity=".36316" stroke="#002278" stroke-linejoin="round" stroke-width="1.9"/></g></g></svg>